<mxfile host="app.diagrams.net" modified="2023-04-03T10:53:33.377Z" agent="Mozilla/5.0 (Windows NT 10.0; Win64; x64) AppleWebKit/537.36 (KHTML, like Gecko) Chrome/111.0.0.0 Safari/537.36" etag="exuvqHX-YT9UIjJNPtff" version="21.1.4" type="github">
  <diagram name="Seite-1" id="vEVvtHZDeFssp79NdhMT">
    <mxGraphModel dx="2074" dy="1124" grid="1" gridSize="10" guides="1" tooltips="1" connect="1" arrows="1" fold="1" page="1" pageScale="1" pageWidth="827" pageHeight="1169" math="0" shadow="0">
      <root>
        <mxCell id="0" />
        <mxCell id="1" parent="0" />
        <mxCell id="8Ox82uxxWL68p3pFORST-1" value="&lt;font style=&quot;font-size: 21px;&quot;&gt;&lt;b&gt;Text&lt;/b&gt;&lt;/font&gt;" style="rounded=1;whiteSpace=wrap;html=1;strokeWidth=3;fillColor=#647687;fontColor=#ffffff;strokeColor=#314354;" vertex="1" parent="1">
          <mxGeometry x="190" y="370" width="120" height="60" as="geometry" />
        </mxCell>
        <mxCell id="8Ox82uxxWL68p3pFORST-2" value="" style="rounded=1;whiteSpace=wrap;html=1;dashed=1;strokeWidth=4;strokeColor=#33aacc;" vertex="1" parent="1">
          <mxGeometry x="450" y="290" width="600" height="210" as="geometry" />
        </mxCell>
        <mxCell id="8Ox82uxxWL68p3pFORST-3" value="tokenizer" style="shape=step;perimeter=stepPerimeter;whiteSpace=wrap;html=1;fixedSize=1;fillColor=#f8cecc;strokeColor=#b85450;strokeWidth=4;fontStyle=1;fontColor=#000000;labelBorderColor=none;fontSize=13;" vertex="1" parent="1">
          <mxGeometry x="490" y="360" width="140" height="70" as="geometry" />
        </mxCell>
        <mxCell id="8Ox82uxxWL68p3pFORST-4" value="" style="endArrow=classic;html=1;rounded=0;strokeWidth=5;strokeColor=#33aacc;" edge="1" parent="1">
          <mxGeometry width="50" height="50" relative="1" as="geometry">
            <mxPoint x="310" y="400" as="sourcePoint" />
            <mxPoint x="440" y="400" as="targetPoint" />
            <Array as="points">
              <mxPoint x="370" y="400" />
            </Array>
          </mxGeometry>
        </mxCell>
        <mxCell id="8Ox82uxxWL68p3pFORST-5" value="&lt;font style=&quot;font-size: 21px;&quot;&gt;&lt;b&gt;nlp&lt;/b&gt;&lt;/font&gt;" style="rounded=1;whiteSpace=wrap;html=1;strokeWidth=3;fillColor=#c3e7f1;fontColor=#000000;strokeColor=#33aacc;" vertex="1" parent="1">
          <mxGeometry x="698" y="260" width="110" height="60" as="geometry" />
        </mxCell>
        <mxCell id="8Ox82uxxWL68p3pFORST-7" value="" style="endArrow=classic;html=1;rounded=0;strokeWidth=5;strokeColor=#33aacc;exitX=0.998;exitY=0.526;exitDx=0;exitDy=0;exitPerimeter=0;" edge="1" parent="1" source="8Ox82uxxWL68p3pFORST-6">
          <mxGeometry width="50" height="50" relative="1" as="geometry">
            <mxPoint x="1150" y="399.71000000000004" as="sourcePoint" />
            <mxPoint x="1220" y="400" as="targetPoint" />
            <Array as="points">
              <mxPoint x="1160" y="399.71000000000004" />
            </Array>
          </mxGeometry>
        </mxCell>
        <mxCell id="8Ox82uxxWL68p3pFORST-9" value="tagger" style="shape=step;perimeter=stepPerimeter;whiteSpace=wrap;html=1;fixedSize=1;fillColor=#f0a30a;strokeColor=#BD7000;strokeWidth=4;fontColor=#000000;fontStyle=1;labelBorderColor=none;fontSize=13;" vertex="1" parent="1">
          <mxGeometry x="650" y="360" width="110" height="70" as="geometry" />
        </mxCell>
        <mxCell id="8Ox82uxxWL68p3pFORST-10" value="parser" style="shape=step;perimeter=stepPerimeter;whiteSpace=wrap;html=1;fixedSize=1;fillColor=#76608a;strokeColor=#432D57;strokeWidth=4;fontColor=#000000;fontStyle=1;labelBorderColor=none;fontSize=13;" vertex="1" parent="1">
          <mxGeometry x="740" y="360" width="107" height="70" as="geometry" />
        </mxCell>
        <mxCell id="8Ox82uxxWL68p3pFORST-11" value="ner" style="shape=step;perimeter=stepPerimeter;whiteSpace=wrap;html=1;fixedSize=1;fillColor=#6d8764;strokeColor=#3A5431;strokeWidth=4;fontColor=#000000;fontStyle=1;labelBorderColor=none;fontSize=13;" vertex="1" parent="1">
          <mxGeometry x="827" y="360" width="107" height="70" as="geometry" />
        </mxCell>
        <mxCell id="8Ox82uxxWL68p3pFORST-12" value="...&lt;br style=&quot;font-size: 13px;&quot;&gt;" style="shape=step;perimeter=stepPerimeter;whiteSpace=wrap;html=1;fixedSize=1;fillColor=#e3c800;strokeColor=#B09500;strokeWidth=4;fontColor=#000000;fontStyle=1;labelBorderColor=none;fontSize=13;" vertex="1" parent="1">
          <mxGeometry x="910" y="360" width="107" height="70" as="geometry" />
        </mxCell>
        <mxCell id="8Ox82uxxWL68p3pFORST-13" value="" style="endArrow=classic;html=1;rounded=0;strokeWidth=5;strokeColor=#33aacc;exitX=0.998;exitY=0.526;exitDx=0;exitDy=0;exitPerimeter=0;" edge="1" parent="1" source="8Ox82uxxWL68p3pFORST-2" target="8Ox82uxxWL68p3pFORST-6">
          <mxGeometry width="50" height="50" relative="1" as="geometry">
            <mxPoint x="1069" y="400" as="sourcePoint" />
            <mxPoint x="1220" y="400" as="targetPoint" />
            <Array as="points" />
          </mxGeometry>
        </mxCell>
        <mxCell id="8Ox82uxxWL68p3pFORST-6" value="&lt;font style=&quot;font-size: 21px;&quot;&gt;&lt;b&gt;Doc&lt;/b&gt;&lt;/font&gt;" style="rounded=1;whiteSpace=wrap;html=1;strokeWidth=3;fillColor=#647687;fontColor=#ffffff;strokeColor=#314354;" vertex="1" parent="1">
          <mxGeometry x="1150" y="370" width="120" height="60" as="geometry" />
        </mxCell>
        <mxCell id="8Ox82uxxWL68p3pFORST-14" value="tokenizer" style="shape=step;perimeter=stepPerimeter;whiteSpace=wrap;html=1;fixedSize=1;fillColor=#f8cecc;strokeColor=#b85450;strokeWidth=4;fontStyle=1;fontColor=#000000;labelBorderColor=none;fontSize=13;" vertex="1" parent="1">
          <mxGeometry x="490" y="360" width="140" height="70" as="geometry" />
        </mxCell>
        <mxCell id="8Ox82uxxWL68p3pFORST-15" value="tagger" style="shape=step;perimeter=stepPerimeter;whiteSpace=wrap;html=1;fixedSize=1;fillColor=#f0a30a;strokeColor=#BD7000;strokeWidth=4;fontColor=#000000;fontStyle=1;labelBorderColor=none;fontSize=13;" vertex="1" parent="1">
          <mxGeometry x="650" y="360" width="110" height="70" as="geometry" />
        </mxCell>
        <mxCell id="8Ox82uxxWL68p3pFORST-16" value="parser" style="shape=step;perimeter=stepPerimeter;whiteSpace=wrap;html=1;fixedSize=1;fillColor=#76608a;strokeColor=#432D57;strokeWidth=4;fontColor=#000000;fontStyle=1;labelBorderColor=none;fontSize=13;" vertex="1" parent="1">
          <mxGeometry x="740" y="360" width="107" height="70" as="geometry" />
        </mxCell>
      </root>
    </mxGraphModel>
  </diagram>
</mxfile>
